<svg width="98" height="28" viewBox="0 0 98 28" fill="none" xmlns="http://www.w3.org/2000/svg">
<g id="bbc-logo">
<path id="Vector" d="M0 0V28H28V0H0ZM19.5234 19.7641C19.0422 20.4422 18.3641 20.9562 17.4781 21.3281C16.5922 21.7 15.5313 21.875 14.2844 21.875H8.00625V6.125H13.9125C15.6516 6.125 17.0078 6.475 17.9594 7.175C18.9109 7.875 19.3922 8.87031 19.3922 10.1828C19.3922 10.9266 19.2172 11.5828 18.8781 12.1297C18.5391 12.6766 18.025 13.1141 17.3578 13.4422C18.2875 13.7484 18.9984 14.2406 19.4906 14.9078C19.9828 15.575 20.2344 16.3844 20.2344 17.3469C20.2453 18.2766 20.0047 19.0859 19.5234 19.7641ZM15.5203 12.0641C15.9578 11.7031 16.1766 11.2 16.1766 10.5547C16.1766 9.30781 15.3234 8.68437 13.6281 8.68437H11.2109V12.6H13.6281C14.4594 12.6 15.0828 12.425 15.5203 12.0641ZM14.0328 15.0719H11.2109V19.3266H14C14.9516 19.3266 15.6953 19.1516 16.2094 18.7906C16.7234 18.4297 16.975 17.9156 16.975 17.2375C16.9641 15.7828 15.9906 15.0719 14.0328 15.0719Z" fill="#FF4C98"/>
<path id="Vector_2" d="M35 0V28H63V0H35ZM54.5234 19.7641C54.0422 20.4422 53.3641 20.9562 52.4781 21.3281C51.5922 21.7 50.5312 21.875 49.2844 21.875H43.0063V6.125H48.9125C50.6516 6.125 52.0078 6.475 52.9594 7.175C53.9109 7.875 54.3922 8.87031 54.3922 10.1828C54.3922 10.9266 54.2172 11.5828 53.8781 12.1297C53.5391 12.6766 53.025 13.1141 52.3578 13.4422C53.2875 13.7484 53.9984 14.2406 54.4906 14.9078C54.9828 15.575 55.2344 16.3844 55.2344 17.3469C55.2453 18.2766 55.0047 19.0859 54.5234 19.7641ZM50.5203 12.0641C50.9578 11.7031 51.1766 11.2 51.1766 10.5547C51.1766 9.30781 50.3234 8.68437 48.6281 8.68437H46.2109V12.6H48.6281C49.4594 12.6 50.0828 12.425 50.5203 12.0641ZM49.0328 15.0719H46.2109V19.3266H49C49.9516 19.3266 50.6953 19.1516 51.2094 18.7906C51.7234 18.4297 51.975 17.9156 51.975 17.2375C51.9641 15.7828 50.9906 15.0719 49.0328 15.0719Z" fill="#FF4C98"/>
<path id="Vector_3" d="M70 28H98V0H70V28ZM90.1141 20.8797C89.4578 21.2406 88.7031 21.525 87.85 21.7328C86.9859 21.9406 86.0891 22.05 85.1375 22.05C83.8797 22.05 82.7422 21.8641 81.7359 21.5031C80.7297 21.1313 79.8766 20.6063 79.1766 19.9172C78.4766 19.2281 77.9516 18.3859 77.5797 17.3797C77.2078 16.3844 77.0219 15.2578 77.0219 14C77.0219 12.775 77.2188 11.6703 77.6016 10.6859C77.9844 9.70156 78.5422 8.85938 79.2641 8.14844C79.9859 7.44844 80.8609 6.90156 81.8781 6.52969C82.8953 6.15781 84.0328 5.97187 85.2906 5.97187C86.1656 5.97187 86.9859 6.05937 87.7734 6.24531C88.55 6.42031 89.2719 6.68281 89.9391 7.03281V10.0953C89.3266 9.69063 88.6703 9.38437 87.9594 9.17656C87.2484 8.96875 86.5047 8.85938 85.7172 8.85938C84.6344 8.85938 83.7156 9.05625 82.95 9.46094C82.1844 9.86563 81.6047 10.4453 81.1891 11.2109C80.7844 11.9766 80.5766 12.9062 80.5766 14C80.5766 15.0938 80.7734 16.0234 81.1672 16.8C81.5609 17.5656 82.1297 18.1562 82.8734 18.5609C83.6172 18.9656 84.525 19.1625 85.5969 19.1625C87.2266 19.1625 88.7359 18.7359 90.1141 17.8938V20.8797Z" fill="#FF4C98"/>
</g>
</svg>
